<svg fill="white" xmlns="http://www.w3.org/2000/svg" width="208" height="72" viewBox="0 0 208 72" class="img--logo--desktop">
  <path d="M49.62 17.778l6.876-6.948-1.51-1.493c-12.18-12.06-31.903-11.96-43.963.22C-.537 21.232-.917 39.827 9.79 51.97l-6.876 6.946 1.508 1.493c12.18 12.057 31.904 11.958 43.964-.222 11.558-11.672 11.94-30.268 1.234-42.412m-35.58-5.232c9.91-10.01 25.81-10.57 36.387-1.625l-3.922 3.96C38.09 8.044 25.698 8.585 17.91 16.452c-7.79 7.863-8.2 20.26-1.283 28.61L12.78 48.95c-9.05-10.49-8.646-26.395 1.26-36.402m31.328 44.65C35.458 67.21 19.556 67.772 8.98 58.83l3.92-3.962c8.416 6.836 20.808 6.296 28.596-1.57 7.79-7.864 8.2-20.26 1.284-28.61l3.846-3.884c9.05 10.487 8.648 26.39-1.257 36.4m72.594-31.766l6.283-.032.024 4.842c3.186-6.448 13.807-7.945 16.227-.132h.104c2.17-4.32 7.525-6.417 12.103-5.044 4.213 1.264 5.468 5.556 5.488 9.54l.086 16.896-6.54.033-.08-15.66c-.014-2.738-.74-5.455-4.028-5.22-3.22.225-5.238 3.065-5.91 5.99-.252 1.03-.297 2.164-.29 3.4l.058 11.537-6.543.033-.08-15.657c-.014-2.9-.867-5.643-4.342-5.186-3.084.403-4.965 3.18-5.645 6.008-.252.98-.296 2.166-.29 3.352l.058 11.535-6.543.033-.132-26.27h-.004zm87.334 20.267c-1.698.01-2.684-.706-2.698-3.59l-.138-27.403-6.457 6.53.11 21.885c.038 7.52 4.52 8.423 8.128 8.405 1.082-.006 2.06-.16 2.06-.16l-.03-5.72s-.46.052-.975.053m-16.923-16.048c-2.314-3.718-6.5-5.554-10.82-5.066-2.78.313-5.687 1.778-7.1 4.292l-.018-3.71-5.977.03.194 38.693 6.51-6.592-.045-8.85c2.21 3.187 6.563 4.076 10.16 3.276 9.396-2.088 11.663-14.725 7.092-22.075m-10.927 16.863c-4.015.02-6.285-3.653-6.55-7.293-.227-3.046.58-6.663 3.427-8.287 2.35-1.342 5.476-.982 7.396.943 4.193 4.214 2.735 14.602-4.273 14.638M105.112 25.49l6.543-.032.132 26.278-6.543.033-.132-26.28zm-4.68 13.994c-1.036-4.574-5.385-6.74-9.353-8.382-2.62-1.084-7.82-2.426-7.69-6.08.13-3.613 4.364-4.57 7.254-4.085 1.632.274 3.247.922 4.685 1.814l4.33-4.374c-3.935-3.74-10.785-4.663-15.724-2.855-5.33 1.954-8.986 7.96-6.49 13.48 1.838 4.06 6.482 5.75 10.294 7.387 2.928 1.254 8.076 3.468 5.778 7.603-1.635 2.944-5.867 2.623-8.57 1.698a15.257 15.257 0 0 1-4.315-2.314l-4.35 4.395c3.832 3.837 10.13 5.432 15.34 4.42 5.928-1.152 10.187-6.596 8.808-12.706"></path>
</svg>